<svg width="19" height="19" viewBox="0 0 19 19" fill="none" xmlns="http://www.w3.org/2000/svg">
<path d="M7.44175 13.0625L9.50008 11.0042L11.5584 13.0625L12.6667 11.9542L10.6084 9.89583L12.6667 7.8375L11.5584 6.72917L9.50008 8.7875L7.44175 6.72917L6.33341 7.8375L8.39175 9.89583L6.33341 11.9542L7.44175 13.0625ZM5.54175 16.625C5.10633 16.625 4.73359 16.47 4.42352 16.1599C4.11345 15.8498 3.95841 15.4771 3.95841 15.0417V4.75H3.16675V3.16667H7.12508V2.375H11.8751V3.16667H15.8334V4.75H15.0417V15.0417C15.0417 15.4771 14.8867 15.8498 14.5766 16.1599C14.2666 16.47 13.8938 16.625 13.4584 16.625H5.54175ZM13.4584 4.75H5.54175V15.0417H13.4584V4.75Z" fill="black"/>
</svg>
